<?xml version="1.0" encoding="UTF-8"?>
<svg id="Layer_1" data-name="Layer 1" xmlns="http://www.w3.org/2000/svg" version="1.1" viewBox="0 0 181 209">
  <defs>
    <style>
      .cls-1 {
        fill: none;
        stroke: #99a5ab;
        stroke-linecap: round;
        stroke-linejoin: round;
        stroke-width: 10.7px;
      }

      .cls-2 {
        font-family: Courier, Courier;
        font-size: 28px;
        isolation: isolate;
      }

      .cls-2, .cls-3 {
        fill: #fff;
      }

      .cls-4 {
        fill: #f3b21c;
      }

      .cls-4, .cls-3 {
        stroke-width: 0px;
      }
    </style>
  </defs>
  <path class="cls-4" d="M6.7,152.9l83.8,48.4,83.8-48.4V56.1L90.5,7.7,6.7,56.1v96.8Z"/>
  <g id="_461915984" data-name=" 461915984">
    <path id="_466458592" data-name=" 466458592" class="cls-3" d="M34.4,153.8c-.7.2-1,1-.8,1.7.2.7,1,1,1.7.8,22.2-7.9,33.2-34.3,41.5-54.1,5.2-12.5,9.3-22.3,13.8-22.3s8.6,9.8,13.8,22.3c8.3,19.8,19.3,46.2,41.5,54.1.7.2,1.4-.1,1.7-.8.2-.7-.1-1.4-.8-1.7-21.1-7.5-31.9-33.3-39.9-52.6-5.6-13.4-10-23.9-16.2-23.9s-10.6,10.5-16.2,23.9c-8,19.3-18.8,45.1-39.9,52.6h0Z"/>
    <path id="_461927336" data-name=" 461927336" class="cls-3" d="M18.1,154.2c-.7,0-1.3.6-1.3,1.3s.6,1.3,1.3,1.3h36.2c.7,0,1.3-.6,1.3-1.3s-.6-1.3-1.3-1.3H18.1Z"/>
    <path id="_461927336-2" data-name=" 461927336" class="cls-3" d="M51.4,154.2c-.7,0-1.3.6-1.3,1.3s.6,1.3,1.3,1.3h36.2c.7,0,1.3-.6,1.3-1.3s-.6-1.3-1.3-1.3h-36.2Z"/>
    <path id="_461927336-3" data-name=" 461927336" class="cls-3" d="M83.5,154.2c-.7,0-1.3.6-1.3,1.3s.6,1.3,1.3,1.3h36.2c.7,0,1.3-.6,1.3-1.3s-.6-1.3-1.3-1.3h-36.2Z"/>
    <path id="_461927336-4" data-name=" 461927336" class="cls-3" d="M116.8,154.2c-.7,0-1.3.6-1.3,1.3s.6,1.3,1.3,1.3h36.2c.7,0,1.3-.6,1.3-1.3s-.6-1.3-1.3-1.3h-36.2Z"/>
    <path id="_461927336-5" data-name=" 461927336" class="cls-3" d="M129.4,154.2c-.7,0-1.3.6-1.3,1.3s.6,1.3,1.3,1.3h36.2c.7,0,1.3-.6,1.3-1.3s-.6-1.3-1.3-1.3h-36.2Z"/>
  </g>
  <g id="surface2602">
    <path class="cls-1" d="M6.7,152.9l83.8,48.4,83.8-48.4V56.1L90.5,7.7,6.7,56.1v96.8Z"/>
    <text class="cls-2" transform="translate(40.1 68.2)"><tspan x="0" y="0">boRing</tspan></text>
  </g>
</svg>